<svg data-v-423bf9ae="" xmlns="http://www.w3.org/2000/svg" viewBox="0 0 274 90" class="iconLeft"><!----><!----><!----><g data-v-423bf9ae="" id="7181817e-4439-4b41-9820-f9212582114e" fill="white" transform="matrix(6,0,0,6,107.6600053012371,-3)"><path d="M8.22 5.58L7.24 5.58L7.17 4.90L7.17 4.90Q7.10 4.35 6.83 4.10L6.83 4.10L6.83 4.10Q6.56 3.86 6.13 3.86L6.13 3.86L3.90 3.86L3.90 7.68L7.23 7.68L7.23 8.50L3.90 8.50L3.90 11.34L3.90 11.34Q3.90 11.64 3.96 11.82L3.96 11.82L3.96 11.82Q4.02 12.00 4.12 12.09L4.12 12.09L4.12 12.09Q4.21 12.19 4.35 12.22L4.35 12.22L4.35 12.22Q4.48 12.25 4.63 12.25L4.63 12.25L5.50 12.25L5.50 13.00L0.39 13.00L0.39 12.25L0.98 12.25L0.98 12.25Q1.13 12.25 1.26 12.22L1.26 12.22L1.26 12.22Q1.39 12.20 1.49 12.11L1.49 12.11L1.49 12.11Q1.59 12.02 1.64 11.86L1.64 11.86L1.64 11.86Q1.70 11.69 1.70 11.42L1.70 11.42L1.70 4.59L1.70 4.59Q1.70 4.31 1.64 4.15L1.64 4.15L1.64 4.15Q1.59 3.98 1.49 3.89L1.49 3.89L1.49 3.89Q1.39 3.80 1.26 3.77L1.26 3.77L1.26 3.77Q1.13 3.74 0.98 3.74L0.98 3.74L0.39 3.74L0.39 3.00L8.15 3.00L8.22 5.58ZM17.21 5.97L17.21 5.97L17.21 5.97Q17.21 6.60 16.99 7.18L16.99 7.18L16.99 7.18Q16.77 7.76 16.28 8.20L16.28 8.20L16.28 8.20Q15.78 8.65 15.00 8.91L15.00 8.91L15.00 8.91Q14.21 9.17 13.08 9.17L13.08 9.17L12.60 9.17L12.60 11.42L12.60 11.42Q12.60 11.69 12.66 11.86L12.66 11.86L12.66 11.86Q12.72 12.02 12.82 12.11L12.82 12.11L12.82 12.11Q12.93 12.20 13.06 12.22L13.06 12.22L13.06 12.22Q13.20 12.25 13.34 12.25L13.34 12.25L14.20 12.25L14.20 13.00L9.08 13.00L9.08 12.25L9.67 12.25L9.67 12.25Q9.83 12.25 9.96 12.22L9.96 12.22L9.96 12.22Q10.09 12.19 10.19 12.09L10.19 12.09L10.19 12.09Q10.28 12.00 10.34 11.82L10.34 11.82L10.34 11.82Q10.39 11.64 10.39 11.34L10.39 11.34L10.39 4.59L10.39 4.59Q10.39 4.31 10.34 4.15L10.34 4.15L10.34 4.15Q10.28 3.98 10.18 3.89L10.18 3.89L10.18 3.89Q10.08 3.80 9.95 3.77L9.95 3.77L9.95 3.77Q9.82 3.74 9.67 3.74L9.67 3.74L9.08 3.74L9.08 3.00L13.38 3.00L13.38 3.00Q14.36 3.00 15.07 3.21L15.07 3.21L15.07 3.21Q15.79 3.41 16.27 3.80L16.27 3.80L16.27 3.80Q16.74 4.18 16.97 4.73L16.97 4.73L16.97 4.73Q17.21 5.28 17.21 5.97ZM12.60 3.83L12.60 8.36L12.94 8.36L12.94 8.36Q13.46 8.36 13.82 8.23L13.82 8.23L13.82 8.23Q14.18 8.10 14.41 7.82L14.41 7.82L14.41 7.82Q14.64 7.54 14.75 7.10L14.75 7.10L14.75 7.10Q14.85 6.65 14.85 6.02L14.85 6.02L14.85 6.02Q14.85 5.46 14.76 5.05L14.76 5.05L14.76 5.05Q14.67 4.63 14.47 4.36L14.47 4.36L14.47 4.36Q14.27 4.09 13.94 3.96L13.94 3.96L13.94 3.96Q13.62 3.83 13.15 3.83L13.15 3.83L12.60 3.83ZM18.02 13.00L18.02 12.25L18.61 12.25L18.61 12.25Q18.75 12.25 18.88 12.22L18.88 12.22L18.88 12.22Q19.01 12.20 19.11 12.11L19.11 12.11L19.11 12.11Q19.21 12.02 19.27 11.86L19.27 11.86L19.27 11.86Q19.33 11.69 19.33 11.42L19.33 11.42L19.33 4.59L19.33 4.59Q19.33 4.31 19.27 4.15L19.27 4.15L19.27 4.15Q19.21 3.98 19.11 3.89L19.11 3.89L19.11 3.89Q19.01 3.80 18.88 3.77L18.88 3.77L18.88 3.77Q18.75 3.74 18.61 3.74L18.61 3.74L18.02 3.74L18.02 3.00L22.53 3.00L22.53 3.00Q24.51 3.00 25.44 3.66L25.44 3.66L25.44 3.66Q26.37 4.33 26.37 5.59L26.37 5.59L26.37 5.59Q26.37 6.15 26.20 6.58L26.20 6.58L26.20 6.58Q26.04 7.01 25.77 7.33L25.77 7.33L25.77 7.33Q25.50 7.65 25.16 7.87L25.16 7.87L25.16 7.87Q24.81 8.09 24.46 8.24L24.46 8.24L26.13 11.11L26.13 11.11Q26.30 11.41 26.47 11.62L26.47 11.62L26.47 11.62Q26.64 11.84 26.81 11.98L26.81 11.98L26.81 11.98Q26.97 12.12 27.15 12.19L27.15 12.19L27.15 12.19Q27.33 12.25 27.53 12.25L27.53 12.25L27.58 12.25L27.58 13.00L27.13 13.00L27.13 13.00Q26.50 13.00 26.03 12.95L26.03 12.95L26.03 12.95Q25.56 12.90 25.21 12.76L25.21 12.76L25.21 12.76Q24.86 12.62 24.60 12.37L24.60 12.37L24.60 12.37Q24.34 12.13 24.12 11.74L24.12 11.74L22.46 8.65L21.53 8.65L21.53 11.42L21.53 11.42Q21.53 11.69 21.59 11.86L21.59 11.86L21.59 11.86Q21.65 12.02 21.75 12.11L21.75 12.11L21.75 12.11Q21.85 12.20 21.98 12.22L21.98 12.22L21.98 12.22Q22.11 12.25 22.25 12.25L22.25 12.25L22.85 12.25L22.85 13.00L18.02 13.00ZM21.53 3.83L21.53 7.84L22.32 7.84L22.32 7.84Q22.80 7.84 23.13 7.71L23.13 7.71L23.13 7.71Q23.45 7.58 23.65 7.32L23.65 7.32L23.65 7.32Q23.84 7.07 23.93 6.68L23.93 6.68L23.93 6.68Q24.01 6.30 24.01 5.78L24.01 5.78L24.01 5.78Q24.01 5.25 23.92 4.88L23.92 4.88L23.92 4.88Q23.82 4.51 23.62 4.28L23.62 4.28L23.62 4.28Q23.41 4.04 23.08 3.93L23.08 3.93L23.08 3.93Q22.76 3.83 22.29 3.83L22.29 3.83L21.53 3.83Z"></path></g><!----><g data-v-423bf9ae="" id="90ce8104-8c08-478e-94a1-4fc8b313dae5" transform="matrix(2.8125,0,0,2.8125,0,0)" stroke="none" fill="white"><path d="M16 1c8.271 0 15 6.729 15 15s-6.729 15-15 15S1 24.271 1 16 7.729 1 16 1m0-1C7.163 0 0 7.163 0 16s7.163 16 16 16 16-7.163 16-16S24.837 0 16 0z"></path><path d="M16 7.045L24.955 16 16 24.955 7.045 16 16 7.045m0-1.414L5.631 16 16 26.369 26.369 16 16 5.631z"></path><path d="M16 12.538L19.462 16 16 19.462 12.538 16 16 12.538m0-1.414L11.124 16 16 20.876 20.876 16 16 11.124z"></path></g><!----></svg>